<?xml version="1.0" standalone="no"?><!DOCTYPE svg PUBLIC "-//W3C//DTD SVG 1.1//EN" "http://www.w3.org/Graphics/SVG/1.1/DTD/svg11.dtd"><svg xmlns="http://www.w3.org/2000/svg" viewBox="0 0 900 500" version="1.1"><clipPath id="box"><rect x="0" y="0" width="900" height="500" style="fill:none;stroke:none;" /></clipPath><g clip-path="url(#box)"><rect x="0.00" y="0.00" width="900.00" height="500.00" style="fill:#FFFFFF;stroke:none;" /><path d="M0.00 436.00 L900.00 436.00 M0.00 334.00 L900.00 334.00 M0.00 233.00 L900.00 233.00 M0.00 132.00 L900.00 132.00 M0.00 30.00 L900.00 30.00 M52.00 0.00 L52.00 500.00 M114.00 0.00 L114.00 500.00 M177.00 0.00 L177.00 500.00 M239.00 0.00 L239.00 500.00 M302.00 0.00 L302.00 500.00 M365.00 0.00 L365.00 500.00 M427.00 0.00 L427.00 500.00 M490.00 0.00 L490.00 500.00 M552.00 0.00 L552.00 500.00 M615.00 0.00 L615.00 500.00 M677.00 0.00 L677.00 500.00 M740.00 0.00 L740.00 500.00 M803.00 0.00 L803.00 500.00 M865.00 0.00 L865.00 500.00 " style="fill:none;stroke:#D0D0D0;stroke-width:1;" /><path d="M427.61 0.00 L427.61 500.00 " style="fill:none;stroke:#000000;stroke-width:1;" /><path d="M418.61 537.93 L436.61 537.93 M418.61 436.45 L436.61 436.45 M418.61 334.96 L436.61 334.96 M418.61 233.48 L436.61 233.48 M418.61 132.00 L436.61 132.00 M418.61 30.52 L436.61 30.52 " style="fill:none;stroke:#000000;stroke-width:1;" /><path d="M0.00 233.48 L900.00 233.48 " style="fill:none;stroke:#000000;stroke-width:1;" /><path d="M-10.37 224.48 L-10.37 242.48 M52.20 224.48 L52.20 242.48 M114.77 224.48 L114.77 242.48 M177.34 224.48 L177.34 242.48 M239.91 224.48 L239.91 242.48 M302.47 224.48 L302.47 242.48 M365.04 224.48 L365.04 242.48 M427.61 224.48 L427.61 242.48 M490.18 224.48 L490.18 242.48 M552.75 224.48 L552.75 242.48 M615.32 224.48 L615.32 242.48 M677.88 224.48 L677.88 242.48 M740.45 224.48 L740.45 242.48 M803.02 224.48 L803.02 242.48 M865.59 224.48 L865.59 242.48 " style="fill:none;stroke:#000000;stroke-width:1;" /><text x="438.86061077367026" y="438.9468552240854" text-anchor="start" style="font:10px Droid Sans,Trebuchet MS,Arial,Helvetica,sans-serif;stroke:none;fill:#000000">-1</text><text x="438.86061077367026" y="337.46482433016456" text-anchor="start" style="font:10px Droid Sans,Trebuchet MS,Arial,Helvetica,sans-serif;stroke:none;fill:#000000">-0.5</text><text x="438.86061077367026" y="235.9827934362436" text-anchor="start" style="font:10px Droid Sans,Trebuchet MS,Arial,Helvetica,sans-serif;stroke:none;fill:#000000">0</text><text x="438.86061077367026" y="134.50076254232272" text-anchor="start" style="font:10px Droid Sans,Trebuchet MS,Arial,Helvetica,sans-serif;stroke:none;fill:#000000">0.5</text><text x="438.86061077367026" y="33.0187316484018" text-anchor="start" style="font:10px Droid Sans,Trebuchet MS,Arial,Helvetica,sans-serif;stroke:none;fill:#000000">1</text><text x="52.20182463354066" y="252.7327934362436" text-anchor="middle" style="font:10px Droid Sans,Trebuchet MS,Arial,Helvetica,sans-serif;stroke:none;fill:#000000">-1.2</text><text x="114.76995565689558" y="252.7327934362436" text-anchor="middle" style="font:10px Droid Sans,Trebuchet MS,Arial,Helvetica,sans-serif;stroke:none;fill:#000000">-1</text><text x="177.33808668025048" y="252.7327934362436" text-anchor="middle" style="font:10px Droid Sans,Trebuchet MS,Arial,Helvetica,sans-serif;stroke:none;fill:#000000">-0.8</text><text x="239.90621770360536" y="252.7327934362436" text-anchor="middle" style="font:10px Droid Sans,Trebuchet MS,Arial,Helvetica,sans-serif;stroke:none;fill:#000000">-0.6</text><text x="302.47434872696033" y="252.7327934362436" text-anchor="middle" style="font:10px Droid Sans,Trebuchet MS,Arial,Helvetica,sans-serif;stroke:none;fill:#000000">-0.4</text><text x="365.0424797503153" y="252.7327934362436" text-anchor="middle" style="font:10px Droid Sans,Trebuchet MS,Arial,Helvetica,sans-serif;stroke:none;fill:#000000">-0.2</text><text x="427.6106107736702" y="252.7327934362436" text-anchor="middle" style="font:10px Droid Sans,Trebuchet MS,Arial,Helvetica,sans-serif;stroke:none;fill:#000000">0</text><text x="490.1787417970251" y="252.7327934362436" text-anchor="middle" style="font:10px Droid Sans,Trebuchet MS,Arial,Helvetica,sans-serif;stroke:none;fill:#000000">0.2</text><text x="552.7468728203801" y="252.7327934362436" text-anchor="middle" style="font:10px Droid Sans,Trebuchet MS,Arial,Helvetica,sans-serif;stroke:none;fill:#000000">0.4</text><text x="615.3150038437349" y="252.7327934362436" text-anchor="middle" style="font:10px Droid Sans,Trebuchet MS,Arial,Helvetica,sans-serif;stroke:none;fill:#000000">0.6</text><text x="677.8831348670899" y="252.7327934362436" text-anchor="middle" style="font:10px Droid Sans,Trebuchet MS,Arial,Helvetica,sans-serif;stroke:none;fill:#000000">0.8</text><text x="740.4512658904447" y="252.7327934362436" text-anchor="middle" style="font:10px Droid Sans,Trebuchet MS,Arial,Helvetica,sans-serif;stroke:none;fill:#000000">1</text><text x="803.0193969137997" y="252.7327934362436" text-anchor="middle" style="font:10px Droid Sans,Trebuchet MS,Arial,Helvetica,sans-serif;stroke:none;fill:#000000">1.2</text><text x="865.5875279371546" y="252.7327934362436" text-anchor="middle" style="font:10px Droid Sans,Trebuchet MS,Arial,Helvetica,sans-serif;stroke:none;fill:#000000">1.4</text><path d="M-10.00 250.00 L-0.25 31.06 L0.75 30.55 L2.72 31.36 L4.72 34.52 L5.36 35.98 L5.79 37.11 L6.17 38.19 L6.53 39.26 L6.86 40.31 L7.18 41.37 L7.48 42.41 L7.76 43.45 L8.04 44.49 L8.31 45.52 L8.56 46.55 L8.81 47.58 L9.05 48.61 L9.29 49.63 L9.52 50.66 L9.75 51.68 L9.97 52.70 L10.18 53.72 L10.39 54.74 L10.60 55.76 L10.80 56.77 L11.01 57.79 L11.20 58.80 L11.40 59.82 L11.59 60.83 L11.78 61.85 L11.96 62.86 L12.15 63.87 L12.33 64.89 L12.51 65.90 L12.69 66.91 L12.86 67.92 L13.03 68.93 L13.21 69.94 L13.38 70.95 L13.54 71.96 L13.71 72.97 L13.88 73.98 L14.04 74.99 L14.20 75.99 L14.36 77.00 L14.52 78.01 L14.68 79.02 L14.84 80.03 L14.99 81.03 L15.15 82.04 L15.30 83.05 L15.46 84.05 L15.61 85.06 L15.76 86.07 L15.91 87.07 L16.06 88.08 L16.20 89.08 L16.35 90.09 L16.50 91.10 L16.64 92.10 L16.79 93.11 L16.93 94.11 L17.07 95.12 L17.22 96.12 L17.36 97.13 L17.50 98.13 L17.64 99.14 L17.78 100.14 L17.92 101.14 L18.06 102.15 L18.20 103.15 L18.33 104.16 L18.47 105.16 L18.61 106.17 L18.74 107.17 L18.88 108.17 L19.01 109.18 L19.15 110.18 L19.28 111.18 L19.41 112.19 L19.55 113.19 L19.68 114.19 L19.81 115.20 L19.94 116.20 L20.07 117.20 L20.20 118.21 L20.33 119.21 L20.46 120.21 L20.59 121.21 L20.72 122.22 L20.85 123.22 L20.98 124.22 L21.11 125.22 L21.24 126.23 L21.36 127.23 L21.49 128.23 L21.62 129.23 L21.75 130.24 L21.87 131.24 L22.00 132.24 L22.13 133.24 L22.25 134.24 L22.38 135.25 L22.50 136.25 L22.63 137.25 L22.75 138.25 L22.88 139.25 L23.00 140.25 L23.12 141.26 L23.25 142.26 L23.37 143.26 L23.50 144.26 L23.62 145.26 L23.74 146.26 L23.87 147.27 L23.99 148.27 L24.11 149.27 L24.23 150.27 L24.36 151.27 L24.48 152.27 L24.60 153.27 L24.72 154.27 L24.84 155.27 L24.97 156.28 L25.09 157.28 L25.21 158.28 L25.33 159.28 L25.45 160.28 L25.57 161.28 L25.69 162.28 L25.81 163.28 L25.93 164.28 L26.05 165.28 L26.18 166.28 L26.30 167.28 L26.42 168.29 L26.54 169.29 L26.66 170.29 L26.78 171.29 L26.90 172.29 L27.02 173.29 L27.14 174.29 L27.26 175.29 L27.38 176.29 L27.50 177.29 L27.62 178.29 L27.74 179.29 L27.86 180.29 L27.98 181.29 L28.10 182.29 L28.22 183.29 L28.34 184.29 L28.46 185.29 L28.58 186.29 L28.70 187.29 L28.82 188.29 L28.94 189.29 L29.06 190.29 L29.18 191.29 L29.29 192.29 L29.41 193.29 L29.53 194.29 L29.65 195.29 L29.77 196.29 L29.89 197.29 L30.01 198.29 L30.13 199.29 L30.25 200.29 L30.37 201.29 L30.49 202.29 L30.61 203.29 L30.73 204.29 L30.85 205.29 L30.97 206.29 L31.10 207.29 L31.22 208.28 L31.34 209.28 L31.46 210.28 L31.58 211.28 L31.70 212.28 L31.82 213.28 L31.94 214.28 L32.06 215.28 L32.18 216.28 L32.30 217.28 L32.42 218.28 L32.55 219.28 L32.67 220.28 L32.79 221.27 L32.91 222.27 L33.03 223.27 L33.15 224.27 L33.28 225.27 L33.40 226.27 L33.52 227.27 L33.64 228.27 L33.77 229.27 L33.89 230.27 L34.01 231.26 L34.13 232.26 L34.26 233.26 L34.38 234.26 L34.50 235.26 L34.63 236.26 L34.75 237.26 L34.87 238.26 L35.00 239.25 L35.12 240.25 L35.25 241.25 L35.37 242.25 L35.50 243.25 L35.62 244.25 L35.75 245.25 L35.87 246.24 L36.00 247.24 L36.12 248.24 L36.25 249.24 L36.38 250.24 L36.50 251.24 L36.63 252.23 L36.76 253.23 L36.88 254.23 L37.01 255.23 L37.14 256.23 L37.26 257.22 L37.39 258.22 L37.52 259.22 L37.65 260.22 L37.78 261.22 L37.91 262.21 L38.04 263.21 L38.17 264.21 L38.30 265.21 L38.43 266.21 L38.56 267.20 L38.69 268.20 L38.82 269.20 L38.95 270.20 L39.08 271.20 L39.21 272.19 L39.34 273.19 L39.48 274.19 L39.61 275.19 L39.74 276.18 L39.87 277.18 L40.01 278.18 L40.14 279.18 L40.28 280.17 L40.41 281.17 L40.55 282.17 L40.68 283.17 L40.82 284.16 L40.95 285.16 L41.09 286.16 L41.23 287.15 L41.36 288.15 L41.50 289.15 L41.64 290.15 L41.78 291.14 L41.92 292.14 L42.06 293.14 L42.19 294.13 L42.33 295.13 L42.48 296.13 L42.62 297.13 L42.76 298.12 L42.90 299.12 L43.04 300.12 L43.18 301.11 L43.33 302.11 L43.47 303.11 L43.62 304.10 L43.76 305.10 L43.90 306.10 L44.05 307.09 L44.20 308.09 L44.34 309.08 L44.49 310.08 L44.64 311.08 L44.79 312.07 L44.94 313.07 L45.08 314.07 L45.23 315.06 L45.39 316.06 L45.54 317.05 L45.69 318.05 L45.84 319.05 L45.99 320.04 L46.15 321.04 L46.30 322.03 L46.46 323.03 L46.61 324.03 L46.77 325.02 L46.92 326.02 L47.08 327.01 L47.24 328.01 L47.40 329.00 L47.56 330.00 L47.72 330.99 L47.88 331.99 L48.04 332.98 L48.21 333.98 L48.37 334.97 L48.53 335.97 L48.70 336.96 L48.87 337.96 L49.03 338.95 L49.20 339.95 L49.37 340.94 L49.54 341.94 L49.71 342.93 L49.88 343.93 L50.05 344.92 L50.23 345.92 L50.40 346.91 L50.58 347.90 L50.75 348.90 L50.93 349.89 L51.11 350.89 L51.29 351.88 L51.47 352.87 L51.65 353.87 L51.83 354.86 L52.02 355.85 L52.20 356.85 L52.39 357.84 L52.58 358.83 L52.77 359.83 L52.96 360.82 L53.15 361.81 L53.34 362.81 L53.54 363.80 L53.73 364.79 L53.93 365.78 L54.13 366.78 L54.33 367.77 L54.53 368.76 L54.73 369.75 L54.94 370.74 L55.15 371.74 L55.36 372.73 L55.57 373.72 L55.78 374.71 L55.99 375.70 L56.21 376.69 L56.43 377.68 L56.65 378.67 L56.87 379.67 L57.09 380.66 L57.32 381.65 L57.55 382.64 L57.78 383.63 L58.01 384.61 L58.25 385.60 L58.49 386.59 L58.73 387.58 L58.97 388.57 L59.22 389.56 L59.47 390.55 L59.72 391.54 L59.97 392.52 L60.23 393.51 L60.49 394.50 L60.76 395.48 L61.03 396.47 L61.30 397.46 L61.58 398.44 L61.86 399.43 L62.14 400.41 L62.43 401.40 L62.72 402.38 L63.02 403.37 L63.33 404.35 L63.63 405.33 L63.95 406.31 L64.27 407.30 L64.59 408.28 L64.92 409.26 L65.26 410.24 L65.60 411.22 L65.96 412.20 L66.32 413.17 L66.69 414.15 L67.06 415.12 L67.45 416.10 L67.85 417.07 L68.25 418.04 L68.67 419.02 L69.11 419.98 L69.55 420.95 L70.01 421.92 L70.49 422.88 L70.98 423.84 L71.50 424.80 L72.04 425.76 L72.60 426.71 L73.19 427.65 L73.82 428.60 L74.48 429.53 L75.19 430.46 L75.95 431.38 L76.78 432.29 L77.70 433.18 L78.73 434.04 L79.92 434.87 L81.36 435.63 L83.26 436.24 L85.26 436.45 L87.26 436.23 L89.26 435.61 L91.26 434.62 L93.26 433.30 L94.77 432.09 L96.02 430.96 L97.13 429.87 L98.15 428.80 L99.10 427.74 L100.00 426.69 L100.85 425.65 L101.67 424.61 L102.46 423.58 L103.23 422.55 L103.97 421.52 L104.69 420.50 L105.40 419.48 L106.09 418.46 L106.77 417.44 L107.44 416.42 L108.09 415.40 L108.73 414.39 L109.37 413.38 L109.99 412.36 L110.61 411.35 L111.22 410.34 L111.83 409.33 L112.42 408.32 L113.02 407.31 L113.60 406.30 L114.18 405.29 L114.76 404.29 L115.33 403.28 L115.90 402.27 L116.47 401.27 L117.03 400.26 L117.59 399.26 L118.14 398.25 L118.70 397.25 L119.25 396.24 L119.79 395.24 L120.34 394.23 L120.88 393.23 L121.42 392.23 L121.96 391.23 L122.50 390.22 L123.04 389.22 L123.57 388.22 L124.11 387.22 L124.64 386.21 L125.18 385.21 L125.71 384.21 L126.24 383.21 L126.77 382.21 L127.30 381.21 L127.83 380.21 L128.36 379.21 L128.89 378.21 L129.42 377.21 L129.94 376.21 L130.47 375.21 L131.00 374.21 L131.53 373.21 L132.06 372.21 L132.59 371.21 L133.12 370.21 L133.65 369.21 L134.18 368.21 L134.72 367.22 L135.25 366.22 L135.78 365.22 L136.32 364.22 L136.85 363.22 L137.39 362.22 L137.93 361.23 L138.47 360.23 L139.01 359.23 L139.55 358.23 L140.09 357.24 L140.64 356.24 L141.18 355.24 L141.73 354.24 L142.28 353.25 L142.83 352.25 L143.38 351.25 L143.94 350.26 L144.49 349.26 L145.05 348.27 L145.61 347.27 L146.17 346.27 L146.74 345.28 L147.31 344.28 L147.88 343.29 L148.45 342.29 L149.02 341.29 L149.60 340.30 L150.18 339.30 L150.76 338.31 L151.35 337.31 L151.94 336.32 L152.53 335.32 L153.12 334.33 L153.72 333.34 L154.32 332.34 L154.93 331.35 L155.53 330.35 L156.15 329.36 L156.76 328.36 L157.38 327.37 L158.00 326.38 L158.63 325.38 L159.26 324.39 L159.89 323.40 L160.53 322.40 L161.18 321.41 L161.82 320.42 L162.48 319.42 L163.13 318.43 L163.80 317.44 L164.46 316.45 L165.14 315.45 L165.81 314.46 L166.50 313.47 L167.18 312.48 L167.88 311.49 L168.58 310.50 L169.28 309.50 L170.00 308.51 L170.71 307.52 L171.44 306.53 L172.17 305.54 L172.91 304.55 L173.65 303.56 L174.41 302.57 L175.17 301.58 L175.93 300.59 L176.71 299.60 L177.49 298.61 L178.29 297.62 L179.09 296.63 L179.90 295.64 L180.72 294.65 L181.54 293.67 L182.38 292.68 L183.23 291.69 L184.09 290.70 L184.96 289.72 L185.84 288.73 L186.73 287.74 L187.64 286.75 L188.55 285.77 L189.48 284.78 L190.43 283.80 L191.38 282.81 L192.35 281.83 L193.34 280.84 L194.34 279.86 L195.35 278.87 L196.39 277.89 L197.44 276.91 L198.50 275.92 L199.59 274.94 L200.70 273.96 L201.82 272.98 L202.97 272.00 L204.14 271.02 L205.33 270.04 L206.55 269.06 L207.79 268.08 L209.06 267.10 L210.36 266.12 L211.69 265.15 L213.04 264.17 L214.44 263.19 L215.86 262.22 L217.33 261.25 L218.83 260.27 L220.38 259.30 L221.97 258.33 L223.61 257.36 L225.30 256.39 L227.04 255.42 L228.85 254.46 L230.71 253.49 L232.65 252.53 L234.65 251.58 L236.65 250.66 L238.65 249.78 L240.65 248.94 L242.65 248.13 L244.65 247.36 L246.65 246.62 L248.65 245.91 L250.65 245.23 L252.65 244.58 L254.65 243.96 L256.65 243.37 L258.65 242.81 L260.65 242.27 L262.65 241.75 L264.65 241.26 L266.65 240.80 L268.65 240.36 L270.65 239.93 L272.65 239.53 L274.65 239.15 L276.65 238.79 L278.65 238.45 L280.65 238.13 L282.65 237.82 L284.65 237.53 L286.65 237.25 L288.65 236.99 L290.65 236.75 L292.65 236.52 L294.65 236.30 L296.65 236.09 L298.65 235.90 L300.65 235.72 L302.65 235.55 L304.65 235.39 L306.65 235.24 L308.65 235.10 L310.65 234.97 L312.65 234.84 L314.65 234.73 L316.65 234.62 L318.65 234.52 L320.65 234.43 L322.65 234.35 L324.65 234.27 L326.65 234.19 L328.65 234.13 L330.65 234.06 L332.65 234.01 L334.65 233.95 L336.65 233.90 L338.65 233.86 L340.65 233.82 L342.65 233.78 L344.65 233.75 L346.65 233.72 L348.65 233.69 L350.65 233.67 L352.65 233.64 L354.65 233.62 L356.65 233.60 L358.65 233.59 L360.65 233.57 L362.65 233.56 L364.65 233.55 L366.65 233.54 L368.65 233.53 L370.65 233.52 L372.65 233.52 L374.65 233.51 L376.65 233.51 L378.65 233.50 L380.65 233.50 L382.65 233.50 L384.65 233.49 L386.65 233.49 L388.65 233.49 L390.65 233.49 L392.65 233.49 L394.65 233.49 L396.65 233.48 L398.65 233.48 L400.65 233.48 L402.65 233.48 L404.65 233.48 L406.65 233.48 L408.65 233.48 L410.65 233.48 L412.65 233.48 L414.65 233.48 L416.65 233.48 L418.65 233.48 L420.65 233.48 L422.65 233.48 L424.65 233.48 L426.65 233.48 L428.65 233.48 L430.65 233.48 L432.65 233.48 L434.65 233.48 L436.65 233.48 L438.65 233.48 L440.65 233.48 L442.65 233.48 L444.65 233.48 L446.65 233.48 L448.65 233.48 L450.65 233.48 L452.65 233.48 L454.65 233.48 L456.65 233.48 L458.65 233.48 L460.65 233.48 L462.65 233.48 L464.65 233.48 L466.65 233.48 L468.65 233.47 L470.65 233.47 L472.65 233.47 L474.65 233.47 L476.65 233.46 L478.65 233.46 L480.65 233.45 L482.65 233.45 L484.65 233.44 L486.65 233.43 L488.65 233.43 L490.65 233.42 L492.65 233.40 L494.65 233.39 L496.65 233.38 L498.65 233.36 L500.65 233.34 L502.65 233.32 L504.65 233.30 L506.65 233.27 L508.65 233.25 L510.65 233.22 L512.65 233.18 L514.65 233.14 L516.65 233.10 L518.65 233.06 L520.65 233.01 L522.65 232.96 L524.65 232.90 L526.65 232.84 L528.65 232.77 L530.65 232.70 L532.65 232.62 L534.65 232.53 L536.65 232.44 L538.65 232.34 L540.65 232.23 L542.65 232.12 L544.65 232.00 L546.65 231.86 L548.65 231.72 L550.65 231.57 L552.65 231.41 L554.65 231.24 L556.65 231.06 L558.65 230.87 L560.65 230.66 L562.65 230.44 L564.65 230.21 L566.65 229.96 L568.65 229.70 L570.65 229.43 L572.65 229.14 L574.65 228.83 L576.65 228.50 L578.65 228.16 L580.65 227.80 L582.65 227.42 L584.65 227.01 L586.65 226.59 L588.65 226.15 L590.65 225.68 L592.65 225.19 L594.65 224.68 L596.65 224.14 L598.65 223.57 L600.65 222.98 L602.65 222.36 L604.65 221.71 L606.65 221.03 L608.65 220.32 L610.65 219.58 L612.65 218.80 L614.65 217.99 L616.65 217.15 L618.65 216.27 L620.65 215.35 L622.65 214.39 L624.65 213.40 L626.65 212.36 L628.58 211.32 L630.44 210.28 L632.22 209.25 L633.95 208.21 L635.62 207.18 L637.24 206.15 L638.80 205.12 L640.32 204.09 L641.80 203.06 L643.24 202.04 L644.64 201.01 L646.01 199.98 L647.34 198.96 L648.64 197.94 L649.91 196.91 L651.15 195.89 L652.37 194.87 L653.56 193.85 L654.73 192.83 L655.87 191.81 L656.99 190.79 L658.09 189.77 L659.17 188.76 L660.24 187.74 L661.28 186.72 L662.31 185.70 L663.32 184.69 L664.31 183.67 L665.29 182.66 L666.25 181.64 L667.20 180.63 L668.13 179.61 L669.05 178.60 L669.96 177.58 L670.86 176.57 L671.74 175.56 L672.62 174.55 L673.48 173.53 L674.33 172.52 L675.17 171.51 L676.00 170.50 L676.82 169.48 L677.63 168.47 L678.44 167.46 L679.23 166.45 L680.01 165.44 L680.79 164.43 L681.56 163.42 L682.32 162.41 L683.07 161.40 L683.82 160.39 L684.55 159.38 L685.29 158.37 L686.01 157.36 L686.73 156.35 L687.44 155.34 L688.14 154.33 L688.84 153.33 L689.54 152.32 L690.22 151.31 L690.90 150.30 L691.58 149.29 L692.25 148.29 L692.92 147.28 L693.58 146.27 L694.23 145.26 L694.89 144.26 L695.53 143.25 L696.17 142.24 L696.81 141.24 L697.44 140.23 L698.07 139.22 L698.70 138.22 L699.32 137.21 L699.94 136.20 L700.55 135.20 L701.16 134.19 L701.77 133.19 L702.37 132.18 L702.97 131.18 L703.57 130.17 L704.16 129.16 L704.75 128.16 L705.34 127.15 L705.92 126.15 L706.50 125.15 L707.08 124.14 L707.66 123.14 L708.23 122.13 L708.80 121.13 L709.37 120.12 L709.93 119.12 L710.50 118.12 L711.06 117.11 L711.62 116.11 L712.18 115.10 L712.73 114.10 L713.28 113.10 L713.84 112.09 L714.39 111.09 L714.93 110.09 L715.48 109.09 L716.03 108.08 L716.57 107.08 L717.11 106.08 L717.65 105.07 L718.19 104.07 L718.73 103.07 L719.27 102.07 L719.80 101.07 L720.34 100.06 L720.87 99.06 L721.40 98.06 L721.94 97.06 L722.47 96.06 L723.00 95.06 L723.53 94.06 L724.06 93.06 L724.59 92.06 L725.12 91.06 L725.65 90.06 L726.18 89.06 L726.71 88.06 L727.24 87.06 L727.76 86.06 L728.29 85.06 L728.82 84.06 L729.35 83.06 L729.88 82.06 L730.41 81.06 L730.95 80.06 L731.48 79.06 L732.01 78.07 L732.55 77.07 L733.08 76.07 L733.62 75.07 L734.16 74.07 L734.69 73.08 L735.24 72.08 L735.78 71.08 L736.32 70.09 L736.87 69.09 L737.42 68.10 L737.97 67.10 L738.53 66.11 L739.08 65.11 L739.64 64.12 L740.21 63.12 L740.77 62.13 L741.34 61.14 L741.92 60.15 L742.50 59.15 L743.08 58.16 L743.67 57.17 L744.27 56.18 L744.87 55.19 L745.47 54.20 L746.09 53.21 L746.71 52.23 L747.34 51.24 L747.97 50.26 L748.62 49.27 L749.28 48.29 L749.94 47.31 L750.63 46.33 L751.32 45.35 L752.03 44.37 L752.75 43.39 L753.50 42.42 L754.26 41.45 L755.05 40.48 L755.86 39.52 L756.71 38.56 L757.59 37.61 L758.52 36.66 L759.50 35.72 L760.54 34.80 L761.67 33.89 L762.91 33.00 L764.30 32.15 L765.94 31.37 L767.94 30.74 L769.94 30.52 L771.94 30.72 L773.94 31.38 L775.94 32.52 L777.69 33.94 L778.92 35.19 L779.90 36.34 L780.76 37.46 L781.53 38.55 L782.23 39.63 L782.88 40.69 L783.49 41.75 L784.07 42.81 L784.62 43.86 L785.14 44.90 L785.64 45.94 L786.12 46.98 L786.58 48.02 L787.02 49.05 L787.45 50.08 L787.87 51.11 L788.28 52.14 L788.67 53.17 L789.05 54.20 L789.43 55.22 L789.79 56.24 L790.15 57.27 L790.50 58.29 L790.84 59.31 L791.17 60.33 L791.50 61.35 L791.82 62.37 L792.13 63.39 L792.44 64.41 L792.75 65.42 L793.05 66.44 L793.34 67.46 L793.63 68.47 L793.91 69.49 L794.19 70.50 L794.47 71.52 L794.74 72.53 L795.01 73.54 L795.28 74.56 L795.54 75.57 L795.80 76.58 L796.05 77.59 L796.30 78.61 L796.55 79.62 L796.80 80.63 L797.04 81.64 L797.28 82.65 L797.52 83.66 L797.75 84.67 L797.99 85.69 L798.22 86.70 L798.44 87.71 L798.67 88.72 L798.89 89.72 L799.11 90.73 L799.33 91.74 L799.55 92.75 L799.76 93.76 L799.98 94.77 L800.19 95.78 L800.40 96.79 L800.61 97.80 L800.81 98.80 L801.02 99.81 L801.22 100.82 L801.42 101.83 L801.62 102.84 L801.82 103.84 L802.01 104.85 L802.21 105.86 L802.40 106.87 L802.59 107.87 L802.79 108.88 L802.98 109.89 L803.16 110.89 L803.35 111.90 L803.54 112.91 L803.72 113.91 L803.90 114.92 L804.09 115.93 L804.27 116.93 L804.45 117.94 L804.62 118.95 L804.80 119.95 L804.98 120.96 L805.15 121.96 L805.33 122.97 L805.50 123.97 L805.67 124.98 L805.85 125.99 L806.02 126.99 L806.19 128.00 L806.35 129.00 L806.52 130.01 L806.69 131.01 L806.86 132.02 L807.02 133.02 L807.19 134.03 L807.35 135.03 L807.51 136.04 L807.67 137.04 L807.83 138.05 L808.00 139.05 L808.16 140.06 L808.31 141.06 L808.47 142.07 L808.63 143.07 L808.79 144.07 L808.94 145.08 L809.10 146.08 L809.25 147.09 L809.41 148.09 L809.56 149.10 L809.71 150.10 L809.87 151.10 L810.02 152.11 L810.17 153.11 L810.32 154.12 L810.47 155.12 L810.62 156.12 L810.77 157.13 L810.91 158.13 L811.06 159.13 L811.21 160.14 L811.36 161.14 L811.50 162.15 L811.65 163.15 L811.79 164.15 L811.94 165.16 L812.08 166.16 L812.22 167.16 L812.37 168.17 L812.51 169.17 L812.65 170.17 L812.79 171.18 L812.93 172.18 L813.08 173.18 L813.22 174.18 L813.36 175.19 L813.50 176.19 L813.63 177.19 L813.77 178.20 L813.91 179.20 L814.05 180.20 L814.19 181.21 L814.32 182.21 L814.46 183.21 L814.60 184.21 L814.73 185.22 L814.87 186.22 L815.00 187.22 L815.14 188.22 L815.27 189.23 L815.41 190.23 L815.54 191.23 L815.67 192.23 L815.81 193.24 L815.94 194.24 L816.07 195.24 L816.20 196.24 L816.34 197.25 L816.47 198.25 L816.60 199.25 L816.73 200.25 L816.86 201.25 L816.99 202.26 L817.12 203.26 L817.25 204.26 L817.38 205.26 L817.51 206.27 L817.64 207.27 L817.77 208.27 L817.90 209.27 L818.02 210.27 L818.15 211.27 L818.28 212.28 L818.41 213.28 L818.54 214.28 L818.66 215.28 L818.79 216.28 L818.92 217.29 L819.04 218.29 L819.17 219.29 L819.29 220.29 L819.42 221.29 L819.55 222.29 L819.67 223.30 L819.80 224.30 L819.92 225.30 L820.05 226.30 L820.17 227.30 L820.30 228.30 L820.42 229.30 L820.54 230.31 L820.67 231.31 L820.79 232.31 L820.92 233.31 L821.04 234.31 L821.16 235.31 L821.29 236.31 L821.41 237.31 L821.53 238.32 L821.65 239.32 L821.78 240.32 L821.90 241.32 L822.02 242.32 L822.14 243.32 L822.27 244.32 L822.39 245.32 L822.51 246.32 L822.63 247.32 L822.75 248.33 L822.87 249.33 L823.00 250.33 L823.12 251.33 L823.24 252.33 L823.36 253.33 L823.48 254.33 L823.60 255.33 L823.72 256.33 L823.84 257.33 L823.96 258.33 L824.08 259.33 L824.20 260.33 L824.33 261.33 L824.45 262.34 L824.57 263.34 L824.69 264.34 L824.81 265.34 L824.93 266.34 L825.05 267.34 L825.17 268.34 L825.29 269.34 L825.41 270.34 L825.53 271.34 L825.65 272.34 L825.77 273.34 L825.89 274.34 L826.01 275.34 L826.13 276.34 L826.25 277.34 L826.37 278.34 L826.49 279.34 L826.60 280.34 L826.72 281.34 L826.84 282.34 L826.96 283.34 L827.08 284.34 L827.20 285.34 L827.32 286.34 L827.44 287.34 L827.56 288.34 L827.68 289.34 L827.80 290.34 L827.92 291.34 L828.04 292.34 L828.16 293.34 L828.28 294.34 L828.40 295.34 L828.52 296.34 L828.64 297.34 L828.76 298.34 L828.88 299.33 L829.00 300.33 L829.12 301.33 L829.24 302.33 L829.37 303.33 L829.49 304.33 L829.61 305.33 L829.73 306.33 L829.85 307.33 L829.97 308.33 L830.09 309.33 L830.21 310.33 L830.33 311.33 L830.45 312.32 L830.58 313.32 L830.70 314.32 L830.82 315.32 L830.94 316.32 L831.06 317.32 L831.19 318.32 L831.31 319.32 L831.43 320.32 L831.55 321.31 L831.68 322.31 L831.80 323.31 L831.92 324.31 L832.05 325.31 L832.17 326.31 L832.29 327.30 L832.42 328.30 L832.54 329.30 L832.67 330.30 L832.79 331.30 L832.92 332.30 L833.04 333.29 L833.17 334.29 L833.29 335.29 L833.42 336.29 L833.55 337.29 L833.67 338.28 L833.80 339.28 L833.93 340.28 L834.05 341.28 L834.18 342.27 L834.31 343.27 L834.44 344.27 L834.56 345.27 L834.69 346.26 L834.82 347.26 L834.95 348.26 L835.08 349.26 L835.21 350.25 L835.34 351.25 L835.47 352.25 L835.61 353.24 L835.74 354.24 L835.87 355.24 L836.00 356.23 L836.13 357.23 L836.27 358.23 L836.40 359.22 L836.54 360.22 L836.67 361.22 L836.81 362.21 L836.94 363.21 L837.08 364.21 L837.22 365.20 L837.35 366.20 L837.49 367.19 L837.63 368.19 L837.77 369.18 L837.91 370.18 L838.05 371.17 L838.19 372.17 L838.33 373.17 L838.48 374.16 L838.62 375.16 L838.76 376.15 L838.91 377.14 L839.06 378.14 L839.20 379.13 L839.35 380.13 L839.50 381.12 L839.65 382.12 L839.80 383.11 L839.95 384.10 L840.10 385.10 L840.25 386.09 L840.41 387.08 L840.56 388.08 L840.72 389.07 L840.87 390.06 L841.03 391.05 L841.19 392.04 L841.35 393.04 L841.52 394.03 L841.68 395.02 L841.84 396.01 L842.01 397.00 L842.18 397.99 L842.35 398.98 L842.52 399.97 L842.69 400.96 L842.87 401.95 L843.05 402.94 L843.23 403.93 L843.41 404.92 L843.59 405.90 L843.78 406.89 L843.96 407.88 L844.15 408.86 L844.35 409.85 L844.54 410.83 L844.74 411.82 L844.95 412.80 L845.15 413.78 L845.36 414.76 L845.58 415.74 L845.79 416.72 L846.02 417.70 L846.24 418.68 L846.47 419.66 L846.71 420.63 L846.96 421.61 L847.21 422.58 L847.47 423.55 L847.73 424.51 L848.01 425.48 L848.29 426.44 L848.59 427.39 L848.90 428.35 L849.23 429.29 L849.57 430.23 L849.94 431.16 L850.33 432.08 L850.76 432.99 L851.24 433.87 L851.77 434.72 L852.40 435.51 L853.21 436.17 L854.42 436.43 L856.42 434.83 L857.68 432.50 L858.22 431.18 L858.62 430.05 L858.99 428.96 L859.31 427.88 L859.62 426.81 L859.91 425.75 L860.18 424.70 L860.44 423.66 L860.68 422.61 L860.92 421.57 L861.15 420.54 L861.36 419.50 L861.58 418.47 L861.78 417.44 L861.98 416.41 L862.18 415.39 L862.36 414.36 L862.55 413.34 L862.73 412.32 L862.90 411.29 L863.08 410.27 L863.25 409.25 L863.41 408.23 L863.57 407.22 L863.73 406.20 L863.89 405.18 L864.04 404.16 L864.20 403.15 L864.35 402.13 L864.49 401.12 L864.64 400.10 L864.78 399.09 L864.92 398.08 L865.06 397.06 L865.20 396.05 L865.33 395.04 L865.47 394.03 L865.60 393.01 L865.73 392.00 L865.86 390.99 L865.98 389.98 L866.11 388.97 L866.24 387.96 L866.36 386.95 L866.48 385.94 L866.60 384.93 L866.72 383.92 L866.84 382.91 L866.96 381.90 L867.08 380.89 L867.19 379.88 L867.31 378.88 L867.42 377.87 L867.53 376.86 L867.65 375.85 L867.76 374.84 L867.87 373.83 L867.98 372.83 L868.08 371.82 L868.19 370.81 L868.30 369.81 L868.40 368.80 L868.51 367.79 L868.61 366.78 L868.72 365.78 L868.82 364.77 L868.92 363.76 L869.03 362.76 L869.13 361.75 L869.23 360.75 L869.33 359.74 L869.43 358.73 L869.53 357.73 L869.62 356.72 L869.72 355.72 L869.82 354.71 L869.91 353.71 L870.01 352.70 L870.11 351.69 L870.20 350.69 L870.30 349.68 L870.39 348.68 L870.48 347.67 L870.58 346.67 L870.67 345.66 L870.76 344.66 L870.85 343.66 L870.94 342.65 L871.04 341.65 L871.13 340.64 L871.22 339.64 L871.31 338.63 L871.39 337.63 L871.48 336.62 L871.57 335.62 L871.66 334.62 L871.75 333.61 L871.84 332.61 L871.92 331.60 L872.01 330.60 L872.10 329.60 L872.18 328.59 L872.27 327.59 L872.35 326.58 L872.44 325.58 L872.52 324.58 L872.61 323.57 L872.69 322.57 L872.78 321.57 L872.86 320.56 L872.94 319.56 L873.03 318.56 L873.11 317.55 L873.19 316.55 L873.27 315.55 L873.35 314.54 L873.44 313.54 L873.52 312.54 L873.60 311.53 L873.68 310.53 L873.76 309.53 L873.84 308.53 L873.92 307.52 L874.00 306.52 L874.08 305.52 L874.16 304.51 L874.24 303.51 L874.32 302.51 L874.40 301.51 L874.48 300.50 L874.56 299.50 L874.63 298.50 L874.71 297.50 L874.79 296.49 L874.87 295.49 L874.95 294.49 L875.02 293.49 L875.10 292.49 L875.18 291.48 L875.25 290.48 L875.33 289.48 L875.41 288.48 L875.48 287.47 L875.56 286.47 L875.64 285.47 L875.71 284.47 L875.79 283.47 L875.86 282.46 L875.94 281.46 L876.01 280.46 L876.09 279.46 L876.16 278.46 L876.24 277.45 L876.31 276.45 L876.39 275.45 L876.46 274.45 L876.54 273.45 L876.61 272.45 L876.69 271.44 L876.76 270.44 L876.83 269.44 L876.91 268.44 L876.98 267.44 L877.05 266.44 L877.13 265.43 L877.20 264.43 L877.27 263.43 L877.35 262.43 L877.42 261.43 L877.49 260.43 L877.57 259.43 L877.64 258.43 L877.71 257.42 L877.78 256.42 L877.86 255.42 L877.93 254.42 L878.00 253.42 L878.07 252.42 L878.14 251.42 L878.22 250.42 L878.29 249.41 L878.36 248.41 L878.43 247.41 L878.50 246.41 L878.58 245.41 L878.65 244.41 L878.72 243.41 L878.79 242.41 L878.86 241.41 L878.93 240.41 L879.00 239.41 L879.07 238.40 L879.15 237.40 L879.22 236.40 L879.29 235.40 L879.36 234.40 L879.43 233.40 L879.50 232.40 L879.57 231.40 L879.64 230.40 L879.71 229.40 L879.78 228.40 L879.85 227.40 L879.93 226.40 L880.00 225.40 L880.07 224.40 L880.14 223.40 L880.21 222.40 L880.28 221.40 L880.35 220.40 L880.42 219.39 L880.49 218.39 L880.56 217.39 L880.63 216.39 L880.70 215.39 L880.77 214.39 L880.84 213.39 L880.91 212.39 L880.98 211.39 L881.05 210.39 L881.12 209.39 L881.19 208.39 L881.26 207.39 L881.33 206.39 L881.40 205.39 L881.47 204.39 L881.54 203.39 L881.61 202.39 L881.68 201.39 L881.76 200.39 L881.83 199.39 L881.90 198.39 L881.97 197.39 L882.04 196.39 L882.11 195.40 L882.18 194.40 L882.25 193.40 L882.32 192.40 L882.39 191.40 L882.46 190.40 L882.53 189.40 L882.60 188.40 L882.67 187.40 L882.74 186.40 L882.81 185.40 L882.88 184.40 L882.95 183.40 L883.03 182.40 L883.10 181.40 L883.17 180.40 L883.24 179.40 L883.31 178.40 L883.38 177.41 L883.45 176.41 L883.52 175.41 L883.59 174.41 L883.67 173.41 L883.74 172.41 L883.81 171.41 L883.88 170.41 L883.95 169.41 L884.02 168.41 L884.09 167.42 L884.17 166.42 L884.24 165.42 L884.31 164.42 L884.38 163.42 L884.46 162.42 L884.53 161.42 L884.60 160.42 L884.67 159.43 L884.74 158.43 L884.82 157.43 L884.89 156.43 L884.96 155.43 L885.04 154.43 L885.11 153.43 L885.18 152.44 L885.26 151.44 L885.33 150.44 L885.40 149.44 L885.48 148.44 L885.55 147.45 L885.63 146.45 L885.70 145.45 L885.77 144.45 L885.85 143.45 L885.92 142.46 L886.00 141.46 L886.07 140.46 L886.15 139.46 L886.22 138.46 L886.30 137.47 L886.37 136.47 L886.45 135.47 L886.53 134.47 L886.60 133.48 L886.68 132.48 L886.76 131.48 L886.83 130.48 L886.91 129.49 L886.99 128.49 L887.06 127.49 L887.14 126.49 L887.22 125.50 L887.30 124.50 L887.37 123.50 L887.45 122.51 L887.53 121.51 L887.61 120.51 L887.69 119.52 L887.77 118.52 L887.85 117.52 L887.93 116.53 L888.01 115.53 L888.09 114.53 L888.17 113.54 L888.25 112.54 L888.33 111.54 L888.42 110.55 L888.50 109.55 L888.58 108.56 L888.66 107.56 L888.75 106.57 L888.83 105.57 L888.91 104.57 L889.00 103.58 L889.08 102.58 L889.17 101.59 L889.25 100.59 L889.34 99.60 L889.43 98.60 L889.51 97.61 L889.60 96.61 L889.69 95.62 L889.77 94.62 L889.86 93.63 L889.95 92.63 L890.04 91.64 L890.13 90.65 L890.22 89.65 L890.31 88.66 L890.40 87.66 L890.50 86.67 L890.59 85.68 L890.68 84.68 L890.78 83.69 L890.87 82.70 L890.97 81.71 L891.06 80.71 L891.16 79.72 L891.26 78.73 L891.36 77.74 L891.46 76.74 L891.56 75.75 L891.66 74.76 L891.76 73.77 L891.86 72.78 L891.96 71.79 L892.07 70.80 L892.17 69.81 L892.28 68.82 L892.39 67.83 L892.50 66.84 L892.61 65.85 L892.72 64.86 L892.83 63.88 L892.95 62.89 L893.06 61.90 L893.18 60.91 L893.30 59.93 L893.42 58.94 L893.54 57.96 L893.66 56.97 L893.79 55.99 L893.92 55.01 L894.05 54.02 L894.18 53.04 L894.31 52.06 L894.45 51.08 L894.59 50.10 L894.74 49.12 L894.88 48.15 L895.03 47.17 L895.19 46.20 L895.34 45.23 L895.51 44.26 L895.67 43.29 L895.85 42.32 L896.03 41.36 L896.21 40.40 L896.41 39.45 L896.61 38.50 L896.82 37.55 L897.05 36.61 L897.29 35.68 L897.55 34.77 L897.84 33.87 L898.15 32.99 L898.51 32.15 L898.94 31.37 L899.49 30.74 " style="fill:none;stroke:#000000;stroke-width:1;" /></g></svg>