<?xml version="1.0" standalone="no"?><!DOCTYPE svg PUBLIC "-//W3C//DTD SVG 1.1//EN" "http://www.w3.org/Graphics/SVG/1.1/DTD/svg11.dtd"><svg xmlns="http://www.w3.org/2000/svg" viewBox="0 0 800 500" version="1.1"><clipPath id="box"><rect x="0" y="0" width="800" height="500" style="fill:none;stroke:none;" /></clipPath><g clip-path="url(#box)"><rect x="0.00" y="0.00" width="800.00" height="500.00" style="fill:#FFFFFF;stroke:none;" /><path d="M0.00 418.00 L800.00 418.00 M0.00 318.00 L800.00 318.00 M0.00 218.00 L800.00 218.00 M0.00 118.00 L800.00 118.00 M0.00 18.00 L800.00 18.00 M54.00 0.00 L54.00 500.00 M152.00 0.00 L152.00 500.00 M251.00 0.00 L251.00 500.00 M349.00 0.00 L349.00 500.00 M447.00 0.00 L447.00 500.00 M546.00 0.00 L546.00 500.00 M644.00 0.00 L644.00 500.00 M743.00 0.00 L743.00 500.00 " style="fill:none;stroke:#D0D0D0;stroke-width:1;" /><path d="M251.08 0.00 L251.08 500.00 " style="fill:none;stroke:#000000;stroke-width:1;" /><path d="M243.08 518.75 L259.08 518.75 M243.08 418.75 L259.08 418.75 M243.08 318.75 L259.08 318.75 M243.08 218.75 L259.08 218.75 M243.08 118.75 L259.08 118.75 M243.08 18.75 L259.08 18.75 " style="fill:none;stroke:#000000;stroke-width:1;" /><path d="M0.00 318.75 L800.00 318.75 " style="fill:none;stroke:#000000;stroke-width:1;" /><path d="M-44.31 310.75 L-44.31 326.75 M54.15 310.75 L54.15 326.75 M152.62 310.75 L152.62 326.75 M251.08 310.75 L251.08 326.75 M349.54 310.75 L349.54 326.75 M448.00 310.75 L448.00 326.75 M546.46 310.75 L546.46 326.75 M644.92 310.75 L644.92 326.75 M743.38 310.75 L743.38 326.75 " style="fill:none;stroke:#000000;stroke-width:1;" /><text x="261.0769230769231" y="421.25" text-anchor="start" style="font:10px Droid Sans,Trebuchet MS,Arial,Helvetica,sans-serif;stroke:none;fill:#000000">-2</text><text x="261.0769230769231" y="321.25" text-anchor="start" style="font:10px Droid Sans,Trebuchet MS,Arial,Helvetica,sans-serif;stroke:none;fill:#000000">0</text><text x="261.0769230769231" y="221.25" text-anchor="start" style="font:10px Droid Sans,Trebuchet MS,Arial,Helvetica,sans-serif;stroke:none;fill:#000000">2</text><text x="261.0769230769231" y="121.25" text-anchor="start" style="font:10px Droid Sans,Trebuchet MS,Arial,Helvetica,sans-serif;stroke:none;fill:#000000">4</text><text x="261.0769230769231" y="21.25" text-anchor="start" style="font:10px Droid Sans,Trebuchet MS,Arial,Helvetica,sans-serif;stroke:none;fill:#000000">6</text><text x="54.15384615384614" y="336.75" text-anchor="middle" style="font:10px Droid Sans,Trebuchet MS,Arial,Helvetica,sans-serif;stroke:none;fill:#000000">-4</text><text x="152.61538461538458" y="336.75" text-anchor="middle" style="font:10px Droid Sans,Trebuchet MS,Arial,Helvetica,sans-serif;stroke:none;fill:#000000">-2</text><text x="251.07692307692307" y="336.75" text-anchor="middle" style="font:10px Droid Sans,Trebuchet MS,Arial,Helvetica,sans-serif;stroke:none;fill:#000000">0</text><text x="349.53846153846155" y="336.75" text-anchor="middle" style="font:10px Droid Sans,Trebuchet MS,Arial,Helvetica,sans-serif;stroke:none;fill:#000000">2</text><text x="447.99999999999994" y="336.75" text-anchor="middle" style="font:10px Droid Sans,Trebuchet MS,Arial,Helvetica,sans-serif;stroke:none;fill:#000000">4</text><text x="546.4615384615385" y="336.75" text-anchor="middle" style="font:10px Droid Sans,Trebuchet MS,Arial,Helvetica,sans-serif;stroke:none;fill:#000000">6</text><text x="644.9230769230769" y="336.75" text-anchor="middle" style="font:10px Droid Sans,Trebuchet MS,Arial,Helvetica,sans-serif;stroke:none;fill:#000000">8</text><text x="743.3846153846154" y="336.75" text-anchor="middle" style="font:10px Droid Sans,Trebuchet MS,Arial,Helvetica,sans-serif;stroke:none;fill:#000000">10</text><path d="M186.46 500.00 L186.46 500.00 L186.95 499.00 L187.45 498.00 L187.94 497.00 L188.43 496.00 L188.92 495.00 L189.42 494.00 L189.91 493.00 L190.40 492.00 L190.89 491.00 L191.39 490.00 L191.88 489.00 L192.37 488.00 L192.86 487.00 L193.35 486.00 L193.85 485.00 L194.34 484.00 L194.83 483.00 L195.32 482.00 L195.82 481.00 L196.31 480.00 L196.80 479.00 L197.29 478.00 L197.79 477.00 L198.28 476.00 L198.77 475.00 L199.26 474.00 L199.75 473.00 L200.25 472.00 L200.74 471.00 L201.23 470.00 L201.72 469.00 L202.22 468.00 L202.71 467.00 L203.20 466.00 L203.69 465.00 L204.19 464.00 L204.68 463.00 L205.17 462.00 L205.66 461.00 L206.15 460.00 L206.65 459.00 L207.14 458.00 L207.63 457.00 L208.12 456.00 L208.62 455.00 L209.11 454.00 L209.60 453.00 L210.09 452.00 L210.59 451.00 L211.08 450.00 L211.57 449.00 L212.06 448.00 L212.55 447.00 L213.05 446.00 L213.54 445.00 L214.03 444.00 L214.52 443.00 L215.02 442.00 L215.51 441.00 L216.00 440.00 L216.49 439.00 L216.99 438.00 L217.48 437.00 L217.97 436.00 L218.46 435.00 L218.95 434.00 L219.45 433.00 L219.94 432.00 L220.43 431.00 L220.92 430.00 L221.42 429.00 L221.91 428.00 L222.40 427.00 L222.89 426.00 L223.39 425.00 L223.88 424.00 L224.37 423.00 L224.86 422.00 L225.35 421.00 L225.85 420.00 L226.34 419.00 L226.83 418.00 L227.32 417.00 L227.82 416.00 L228.31 415.00 L228.80 414.00 L229.29 413.00 L229.79 412.00 L230.28 411.00 L230.77 410.00 L231.26 409.00 L231.75 408.00 L232.25 407.00 L232.74 406.00 L233.23 405.00 L233.72 404.00 L234.22 403.00 L234.71 402.00 L235.20 401.00 L235.69 400.00 L236.19 399.00 L236.68 398.00 L237.17 397.00 L237.66 396.00 L238.15 395.00 L238.65 394.00 L239.14 393.00 L239.63 392.00 L240.12 391.00 L240.62 390.00 L241.11 389.00 L241.60 388.00 L242.09 387.00 L242.59 386.00 L243.08 385.00 L243.57 384.00 L244.06 383.00 L244.55 382.00 L245.05 381.00 L245.54 380.00 L246.03 379.00 L246.52 378.00 L247.02 377.00 L247.51 376.00 L248.00 375.00 L248.49 374.00 L248.99 373.00 L249.48 372.00 L249.97 371.00 L250.46 370.00 L250.95 369.00 L251.45 368.00 L251.94 367.00 L252.43 366.00 L252.92 365.00 L253.42 364.00 L253.91 363.00 L254.40 362.00 L254.89 361.00 L255.39 360.00 L255.88 359.00 L256.37 358.00 L256.86 357.00 L257.35 356.00 L257.85 355.00 L258.34 354.00 L258.83 353.00 L259.32 352.00 L259.82 351.00 L260.31 350.00 L260.80 349.00 L261.29 348.00 L261.79 347.00 L262.28 346.00 L262.77 345.00 L263.26 344.00 L263.75 343.00 L264.25 342.00 L264.74 341.00 L265.23 340.00 L265.72 339.00 L266.22 338.00 L266.71 337.00 L267.20 336.00 L267.69 335.00 L268.19 334.00 L268.68 333.00 L269.17 332.00 L269.66 331.00 L270.15 330.00 L270.65 329.00 L271.14 328.00 L271.63 327.00 L272.12 326.00 L272.62 325.00 L273.11 324.00 L273.60 323.00 L274.09 322.00 L274.59 321.00 L275.08 320.00 L275.57 319.00 L276.06 318.00 L276.55 317.00 L277.05 316.00 L277.54 315.00 L278.03 314.00 L278.52 313.00 L279.02 312.00 L279.51 311.00 L280.00 310.00 L280.49 309.00 L280.99 308.00 L281.48 307.00 L281.97 306.00 L282.46 305.00 L282.95 304.00 L283.45 303.00 L283.94 302.00 L284.43 301.00 L284.92 300.00 L285.42 299.00 L285.91 298.00 L286.40 297.00 L286.89 296.00 L287.39 295.00 L287.88 294.00 L288.37 293.00 L288.86 292.00 L289.35 291.00 L289.85 290.00 L290.34 289.00 L290.83 288.00 L291.32 287.00 L291.82 286.00 L292.31 285.00 L292.80 284.00 L293.29 283.00 L293.79 282.00 L294.28 281.00 L294.77 280.00 L295.26 279.00 L295.75 278.00 L296.25 277.00 L296.74 276.00 L297.23 275.00 L297.72 274.00 L298.22 273.00 L298.71 272.00 L299.20 271.00 L299.69 270.00 L300.19 269.00 L300.68 268.00 L301.17 267.00 L301.66 266.00 L302.15 265.00 L302.65 264.00 L303.14 263.00 L303.63 262.00 L304.12 261.00 L304.62 260.00 L305.11 259.00 L305.60 258.00 L306.09 257.00 L306.59 256.00 L307.08 255.00 L307.57 254.00 L308.06 253.00 L308.55 252.00 L309.05 251.00 L309.54 250.00 L310.03 249.00 L310.52 248.00 L311.02 247.00 L311.51 246.00 L312.00 245.00 L312.49 244.00 L312.99 243.00 L313.48 242.00 L313.97 241.00 L314.46 240.00 L314.95 239.00 L315.45 238.00 L315.94 237.00 L316.43 236.00 L316.92 235.00 L317.42 234.00 L317.91 233.00 L318.40 232.00 L318.89 231.00 L319.39 230.00 L319.88 229.00 L320.37 228.00 L320.86 227.00 L321.35 226.00 L321.85 225.00 L322.34 224.00 L322.83 223.00 L323.32 222.00 L323.82 221.00 L324.31 220.00 L324.80 219.00 L325.29 218.00 L325.79 217.00 L326.28 216.00 L326.77 215.00 L327.26 214.00 L327.75 213.00 L328.25 212.00 L328.74 211.00 L329.23 210.00 L329.72 209.00 L330.22 208.00 L330.71 207.00 L331.20 206.00 L331.69 205.00 L332.19 204.00 L332.68 203.00 L333.17 202.00 L333.66 201.00 L334.15 200.00 L334.65 199.00 L335.14 198.00 L335.63 197.00 L336.12 196.00 L336.62 195.00 L337.11 194.00 L337.60 193.00 L338.09 192.00 L338.59 191.00 L339.08 190.00 L339.57 189.00 L340.06 188.00 L340.55 187.00 L341.05 186.00 L341.54 185.00 L342.03 184.00 L342.52 183.00 L343.02 182.00 L343.51 181.00 L344.00 180.00 L344.49 179.00 L344.99 178.00 L345.48 177.00 L345.97 176.00 L346.46 175.00 L346.95 174.00 L347.45 173.00 L347.94 172.00 L348.43 171.00 L348.92 170.00 L349.42 169.00 L349.91 168.00 L350.40 167.00 L350.89 166.00 L351.39 165.00 L351.88 164.00 L352.37 163.00 L352.86 162.00 L353.35 161.00 L353.85 160.00 L354.34 159.00 L354.83 158.00 L355.32 157.00 L355.82 156.00 L356.31 155.00 L356.80 154.00 L357.29 153.00 L357.79 152.00 L358.28 151.00 L358.77 150.00 L359.26 149.00 L359.75 148.00 L360.25 147.00 L360.74 146.00 L361.23 145.00 L361.72 144.00 L362.22 143.00 L362.71 142.00 L363.20 141.00 L363.69 140.00 L364.19 139.00 L364.68 138.00 L365.17 137.00 L365.66 136.00 L366.15 135.00 L366.65 134.00 L367.14 133.00 L367.63 132.00 L368.12 131.00 L368.62 130.00 L369.11 129.00 L369.60 128.00 L370.09 127.00 L370.59 126.00 L371.08 125.00 L371.57 124.00 L372.06 123.00 L372.55 122.00 L373.05 121.00 L373.54 120.00 L374.03 119.00 L374.52 118.00 L375.02 117.00 L375.51 116.00 L376.00 115.00 L376.49 114.00 L376.99 113.00 L377.48 112.00 L377.97 111.00 L378.46 110.00 L378.95 109.00 L379.45 108.00 L379.94 107.00 L380.43 106.00 L380.92 105.00 L381.42 104.00 L381.91 103.00 L382.40 102.00 L382.89 101.00 L383.39 100.00 L383.88 99.00 L384.37 98.00 L384.86 97.00 L385.35 96.00 L385.85 95.00 L386.34 94.00 L386.83 93.00 L387.32 92.00 L387.82 91.00 L388.31 90.00 L388.80 89.00 L389.29 88.00 L389.79 87.00 L390.28 86.00 L390.77 85.00 L391.26 84.00 L391.75 83.00 L392.25 82.00 L392.74 81.00 L393.23 80.00 L393.72 79.00 L394.22 78.00 L394.71 77.00 L395.20 76.00 L395.69 75.00 L396.19 74.00 L396.68 73.00 L397.17 72.00 L397.66 71.00 L398.15 70.00 L398.65 69.00 L399.14 68.00 L399.63 67.00 L400.12 66.00 L400.62 65.00 L401.11 64.00 L401.60 63.00 L402.09 62.00 L402.59 61.00 L403.08 60.00 L403.57 59.00 L404.06 58.00 L404.55 57.00 L405.05 56.00 L405.54 55.00 L406.03 54.00 L406.52 53.00 L407.02 52.00 L407.51 51.00 L408.00 50.00 L408.49 49.00 L408.99 48.00 L409.48 47.00 L409.97 46.00 L410.46 45.00 L410.95 44.00 L411.45 43.00 L411.94 42.00 L412.43 41.00 L412.92 40.00 L413.42 39.00 L413.91 38.00 L414.40 37.00 L414.89 36.00 L415.39 35.00 L415.88 34.00 L416.37 33.00 L416.86 32.00 L417.35 31.00 L417.85 30.00 L418.34 29.00 L418.83 28.00 L419.32 27.00 L419.82 26.00 L420.31 25.00 L420.80 24.00 L421.29 23.00 L421.79 22.00 L422.28 21.00 L422.77 20.00 L423.26 19.00 L423.75 18.00 L424.25 17.00 L424.74 16.00 L425.23 15.00 L425.72 14.00 L426.22 13.00 L426.71 12.00 L427.20 11.00 L427.69 10.00 L428.19 9.00 L428.68 8.00 L429.17 7.00 L429.66 6.00 L430.15 5.00 L430.65 4.00 L431.14 3.00 L431.63 2.00 L432.12 1.00 L432.62 -0.00 " style="fill:none;stroke:#000000;stroke-width:1;" /><path d="M-10.00 250.00 L-0.25 218.75 L0.75 218.75 L2.75 218.75 L4.75 218.75 L6.75 218.75 L8.75 218.75 L10.75 218.75 L12.75 218.75 L14.75 218.75 L16.75 218.75 L18.75 218.75 L20.75 218.75 L22.75 218.75 L24.75 218.75 L26.75 218.75 L28.75 218.75 L30.75 218.75 L32.75 218.75 L34.75 218.75 L36.75 218.75 L38.75 218.75 L40.75 218.75 L42.75 218.75 L44.75 218.75 L46.75 218.75 L48.75 218.75 L50.75 218.75 L52.75 218.75 L54.75 218.75 L56.75 218.75 L58.75 218.75 L60.75 218.75 L62.75 218.75 L64.75 218.75 L66.75 218.75 L68.75 218.75 L70.75 218.75 L72.75 218.75 L74.75 218.75 L76.75 218.75 L78.75 218.75 L80.75 218.75 L82.75 218.75 L84.75 218.75 L86.75 218.75 L88.75 218.75 L90.75 218.75 L92.75 218.75 L94.75 218.75 L96.75 218.75 L98.75 218.75 L100.75 218.75 L102.75 218.75 L104.75 218.75 L106.75 218.75 L108.75 218.75 L110.75 218.75 L112.75 218.75 L114.75 218.75 L116.75 218.75 L118.75 218.75 L120.75 218.75 L122.75 218.75 L124.75 218.75 L126.75 218.75 L128.75 218.75 L130.75 218.75 L132.75 218.75 L134.75 218.75 L136.75 218.75 L138.75 218.75 L140.75 218.75 L142.75 218.75 L144.75 218.75 L146.75 218.75 L148.75 218.75 L150.75 218.75 L152.75 218.75 L154.75 218.75 L156.75 218.75 L158.75 218.75 L160.75 218.75 L162.75 218.75 L164.75 218.75 L166.75 218.75 L168.75 218.75 L170.75 218.75 L172.75 218.75 L174.75 218.75 L176.75 218.75 L178.75 218.75 L180.75 218.75 L182.75 218.75 L184.75 218.75 L186.75 218.75 L188.75 218.75 L190.75 218.75 L192.75 218.75 L194.75 218.75 L196.75 218.75 L198.75 218.75 L200.75 218.75 L202.75 218.75 L204.75 218.75 L206.75 218.75 L208.75 218.75 L210.75 218.75 L212.75 218.75 L214.75 218.75 L216.75 218.75 L218.75 218.75 L220.75 218.75 L222.75 218.75 L224.75 218.75 L226.75 218.75 L228.75 218.75 L230.75 218.75 L232.75 218.75 L234.75 218.75 L236.75 218.75 L238.75 218.75 L240.75 218.75 L242.75 218.75 L244.75 218.75 L246.75 218.75 L248.75 218.75 L250.75 218.75 L252.75 218.75 L254.75 218.75 L256.75 218.75 L258.75 218.75 L260.75 218.75 L262.75 218.75 L264.75 218.75 L266.75 218.75 L268.75 218.75 L270.75 218.75 L272.75 218.75 L274.75 218.75 L276.75 218.75 L278.75 218.75 L280.75 218.75 L282.75 218.75 L284.75 218.75 L286.75 218.75 L288.75 218.75 L290.75 218.75 L292.75 218.75 L294.75 218.75 L296.75 218.75 L298.75 218.75 L300.75 218.75 L302.75 218.75 L304.75 218.75 L306.75 218.75 L308.75 218.75 L310.75 218.75 L312.75 218.75 L314.75 218.75 L316.75 218.75 L318.75 218.75 L320.75 218.75 L322.75 218.75 L324.75 218.75 L326.75 218.75 L328.75 218.75 L330.75 218.75 L332.75 218.75 L334.75 218.75 L336.75 218.75 L338.75 218.75 L340.75 218.75 L342.75 218.75 L344.75 218.75 L346.75 218.75 L348.75 218.75 L350.75 218.75 L352.75 218.75 L354.75 218.75 L356.75 218.75 L358.75 218.75 L360.75 218.75 L362.75 218.75 L364.75 218.75 L366.75 218.75 L368.75 218.75 L370.75 218.75 L372.75 218.75 L374.75 218.75 L376.75 218.75 L378.75 218.75 L380.75 218.75 L382.75 218.75 L384.75 218.75 L386.75 218.75 L388.75 218.75 L390.75 218.75 L392.75 218.75 L394.75 218.75 L396.75 218.75 L398.75 218.75 L400.75 218.75 L402.75 218.75 L404.75 218.75 L406.75 218.75 L408.75 218.75 L410.75 218.75 L412.75 218.75 L414.75 218.75 L416.75 218.75 L418.75 218.75 L420.75 218.75 L422.75 218.75 L424.75 218.75 L426.75 218.75 L428.75 218.75 L430.75 218.75 L432.75 218.75 L434.75 218.75 L436.75 218.75 L438.75 218.75 L440.75 218.75 L442.75 218.75 L444.75 218.75 L446.75 218.75 L448.75 218.75 L450.75 218.75 L452.75 218.75 L454.75 218.75 L456.75 218.75 L458.75 218.75 L460.75 218.75 L462.75 218.75 L464.75 218.75 L466.75 218.75 L468.75 218.75 L470.75 218.75 L472.75 218.75 L474.75 218.75 L476.75 218.75 L478.75 218.75 L480.75 218.75 L482.75 218.75 L484.75 218.75 L486.75 218.75 L488.75 218.75 L490.75 218.75 L492.75 218.75 L494.75 218.75 L496.75 218.75 L498.75 218.75 L500.75 218.75 L502.75 218.75 L504.75 218.75 L506.75 218.75 L508.75 218.75 L510.75 218.75 L512.75 218.75 L514.75 218.75 L516.75 218.75 L518.75 218.75 L520.75 218.75 L522.75 218.75 L524.75 218.75 L526.75 218.75 L528.75 218.75 L530.75 218.75 L532.75 218.75 L534.75 218.75 L536.75 218.75 L538.75 218.75 L540.75 218.75 L542.75 218.75 L544.75 218.75 L546.75 218.75 L548.75 218.75 L550.75 218.75 L552.75 218.75 L554.75 218.75 L556.75 218.75 L558.75 218.75 L560.75 218.75 L562.75 218.75 L564.75 218.75 L566.75 218.75 L568.75 218.75 L570.75 218.75 L572.75 218.75 L574.75 218.75 L576.75 218.75 L578.75 218.75 L580.75 218.75 L582.75 218.75 L584.75 218.75 L586.75 218.75 L588.75 218.75 L590.75 218.75 L592.75 218.75 L594.75 218.75 L596.75 218.75 L598.75 218.75 L600.75 218.75 L602.75 218.75 L604.75 218.75 L606.75 218.75 L608.75 218.75 L610.75 218.75 L612.75 218.75 L614.75 218.75 L616.75 218.75 L618.75 218.75 L620.75 218.75 L622.75 218.75 L624.75 218.75 L626.75 218.75 L628.75 218.75 L630.75 218.75 L632.75 218.75 L634.75 218.75 L636.75 218.75 L638.75 218.75 L640.75 218.75 L642.75 218.75 L644.75 218.75 L646.75 218.75 L648.75 218.75 L650.75 218.75 L652.75 218.75 L654.75 218.75 L656.75 218.75 L658.75 218.75 L660.75 218.75 L662.75 218.75 L664.75 218.75 L666.75 218.75 L668.75 218.75 L670.75 218.75 L672.75 218.75 L674.75 218.75 L676.75 218.75 L678.75 218.75 L680.75 218.75 L682.75 218.75 L684.75 218.75 L686.75 218.75 L688.75 218.75 L690.75 218.75 L692.75 218.75 L694.75 218.75 L696.75 218.75 L698.75 218.75 L700.75 218.75 L702.75 218.75 L704.75 218.75 L706.75 218.75 L708.75 218.75 L710.75 218.75 L712.75 218.75 L714.75 218.75 L716.75 218.75 L718.75 218.75 L720.75 218.75 L722.75 218.75 L724.75 218.75 L726.75 218.75 L728.75 218.75 L730.75 218.75 L732.75 218.75 L734.75 218.75 L736.75 218.75 L738.75 218.75 L740.75 218.75 L742.75 218.75 L744.75 218.75 L746.75 218.75 L748.75 218.75 L750.75 218.75 L752.75 218.75 L754.75 218.75 L756.75 218.75 L758.75 218.75 L760.75 218.75 L762.75 218.75 L764.75 218.75 L766.75 218.75 L768.75 218.75 L770.75 218.75 L772.75 218.75 L774.75 218.75 L776.75 218.75 L778.75 218.75 L780.75 218.75 L782.75 218.75 L784.75 218.75 L786.75 218.75 L788.75 218.75 L790.75 218.75 L792.75 218.75 L794.75 218.75 L796.75 218.75 L798.75 218.75 " style="fill:none;stroke:#000000;stroke-width:1;" /><path d="M115.69 -0.00 L115.69 0.00 L117.66 1.00 L119.63 2.00 L121.60 3.00 L123.57 4.00 L125.54 5.00 L127.51 6.00 L129.48 7.00 L131.45 8.00 L133.42 9.00 L135.39 10.00 L137.35 11.00 L139.32 12.00 L141.29 13.00 L143.26 14.00 L145.23 15.00 L147.20 16.00 L149.17 17.00 L151.14 18.00 L153.11 19.00 L155.08 20.00 L157.05 21.00 L159.02 22.00 L160.99 23.00 L162.95 24.00 L164.92 25.00 L166.89 26.00 L168.86 27.00 L170.83 28.00 L172.80 29.00 L174.77 30.00 L176.74 31.00 L178.71 32.00 L180.68 33.00 L182.65 34.00 L184.62 35.00 L186.59 36.00 L188.55 37.00 L190.52 38.00 L192.49 39.00 L194.46 40.00 L196.43 41.00 L198.40 42.00 L200.37 43.00 L202.34 44.00 L204.31 45.00 L206.28 46.00 L208.25 47.00 L210.22 48.00 L212.19 49.00 L214.15 50.00 L216.12 51.00 L218.09 52.00 L220.06 53.00 L222.03 54.00 L224.00 55.00 L225.97 56.00 L227.94 57.00 L229.91 58.00 L231.88 59.00 L233.85 60.00 L235.82 61.00 L237.79 62.00 L239.75 63.00 L241.72 64.00 L243.69 65.00 L245.66 66.00 L247.63 67.00 L249.60 68.00 L251.57 69.00 L253.54 70.00 L255.51 71.00 L257.48 72.00 L259.45 73.00 L261.42 74.00 L263.39 75.00 L265.35 76.00 L267.32 77.00 L269.29 78.00 L271.26 79.00 L273.23 80.00 L275.20 81.00 L277.17 82.00 L279.14 83.00 L281.11 84.00 L283.08 85.00 L285.05 86.00 L287.02 87.00 L288.99 88.00 L290.95 89.00 L292.92 90.00 L294.89 91.00 L296.86 92.00 L298.83 93.00 L300.80 94.00 L302.77 95.00 L304.74 96.00 L306.71 97.00 L308.68 98.00 L310.65 99.00 L312.62 100.00 L314.59 101.00 L316.55 102.00 L318.52 103.00 L320.49 104.00 L322.46 105.00 L324.43 106.00 L326.40 107.00 L328.37 108.00 L330.34 109.00 L332.31 110.00 L334.28 111.00 L336.25 112.00 L338.22 113.00 L340.19 114.00 L342.15 115.00 L344.12 116.00 L346.09 117.00 L348.06 118.00 L350.03 119.00 L352.00 120.00 L353.97 121.00 L355.94 122.00 L357.91 123.00 L359.88 124.00 L361.85 125.00 L363.82 126.00 L365.79 127.00 L367.75 128.00 L369.72 129.00 L371.69 130.00 L373.66 131.00 L375.63 132.00 L377.60 133.00 L379.57 134.00 L381.54 135.00 L383.51 136.00 L385.48 137.00 L387.45 138.00 L389.42 139.00 L391.39 140.00 L393.35 141.00 L395.32 142.00 L397.29 143.00 L399.26 144.00 L401.23 145.00 L403.20 146.00 L405.17 147.00 L407.14 148.00 L409.11 149.00 L411.08 150.00 L413.05 151.00 L415.02 152.00 L416.99 153.00 L418.95 154.00 L420.92 155.00 L422.89 156.00 L424.86 157.00 L426.83 158.00 L428.80 159.00 L430.77 160.00 L432.74 161.00 L434.71 162.00 L436.68 163.00 L438.65 164.00 L440.62 165.00 L442.59 166.00 L444.55 167.00 L446.52 168.00 L448.49 169.00 L450.46 170.00 L452.43 171.00 L454.40 172.00 L456.37 173.00 L458.34 174.00 L460.31 175.00 L462.28 176.00 L464.25 177.00 L466.22 178.00 L468.19 179.00 L470.15 180.00 L472.12 181.00 L474.09 182.00 L476.06 183.00 L478.03 184.00 L480.00 185.00 L481.97 186.00 L483.94 187.00 L485.91 188.00 L487.88 189.00 L489.85 190.00 L491.82 191.00 L493.79 192.00 L495.75 193.00 L497.72 194.00 L499.69 195.00 L501.66 196.00 L503.63 197.00 L505.60 198.00 L507.57 199.00 L509.54 200.00 L511.51 201.00 L513.48 202.00 L515.45 203.00 L517.42 204.00 L519.39 205.00 L521.35 206.00 L523.32 207.00 L525.29 208.00 L527.26 209.00 L529.23 210.00 L531.20 211.00 L533.17 212.00 L535.14 213.00 L537.11 214.00 L539.08 215.00 L541.05 216.00 L543.02 217.00 L544.99 218.00 L546.95 219.00 L548.92 220.00 L550.89 221.00 L552.86 222.00 L554.83 223.00 L556.80 224.00 L558.77 225.00 L560.74 226.00 L562.71 227.00 L564.68 228.00 L566.65 229.00 L568.62 230.00 L570.59 231.00 L572.55 232.00 L574.52 233.00 L576.49 234.00 L578.46 235.00 L580.43 236.00 L582.40 237.00 L584.37 238.00 L586.34 239.00 L588.31 240.00 L590.28 241.00 L592.25 242.00 L594.22 243.00 L596.19 244.00 L598.15 245.00 L600.12 246.00 L602.09 247.00 L604.06 248.00 L606.03 249.00 L608.00 250.00 L609.97 251.00 L611.94 252.00 L613.91 253.00 L615.88 254.00 L617.85 255.00 L619.82 256.00 L621.79 257.00 L623.75 258.00 L625.72 259.00 L627.69 260.00 L629.66 261.00 L631.63 262.00 L633.60 263.00 L635.57 264.00 L637.54 265.00 L639.51 266.00 L641.48 267.00 L643.45 268.00 L645.42 269.00 L647.39 270.00 L649.35 271.00 L651.32 272.00 L653.29 273.00 L655.26 274.00 L657.23 275.00 L659.20 276.00 L661.17 277.00 L663.14 278.00 L665.11 279.00 L667.08 280.00 L669.05 281.00 L671.02 282.00 L672.99 283.00 L674.95 284.00 L676.92 285.00 L678.89 286.00 L680.86 287.00 L682.83 288.00 L684.80 289.00 L686.77 290.00 L688.74 291.00 L690.71 292.00 L692.68 293.00 L694.65 294.00 L696.62 295.00 L698.59 296.00 L700.55 297.00 L702.52 298.00 L704.49 299.00 L706.46 300.00 L708.43 301.00 L710.40 302.00 L712.37 303.00 L714.34 304.00 L716.31 305.00 L718.28 306.00 L720.25 307.00 L722.22 308.00 L724.19 309.00 L726.15 310.00 L728.12 311.00 L730.09 312.00 L732.06 313.00 L734.03 314.00 L736.00 315.00 L737.97 316.00 L739.94 317.00 L741.91 318.00 L743.88 319.00 L745.85 320.00 L747.82 321.00 L749.79 322.00 L751.75 323.00 L753.72 324.00 L755.69 325.00 L757.66 326.00 L759.63 327.00 L761.60 328.00 L763.57 329.00 L765.54 330.00 L767.51 331.00 L769.48 332.00 L771.45 333.00 L773.42 334.00 L775.39 335.00 L777.35 336.00 L779.32 337.00 L781.29 338.00 L783.26 339.00 L785.23 340.00 L787.20 341.00 L789.17 342.00 L791.14 343.00 L793.11 344.00 L795.08 345.00 L797.05 346.00 L799.02 347.00 " style="fill:none;stroke:#000000;stroke-width:1;" /></g></svg>